<!DOCTYPE svg PUBLIC "-//W3C//DTD SVG 20010904//EN" "http://www.w3.org/TR/2001/REC-SVG-20010904/DTD/svg10.dtd">
<svg version="1.0" xmlns="http://www.w3.org/2000/svg" width="1200px" height="315px" viewBox="0 0 12000 3150" preserveAspectRatio="xMidYMid meet">
<g id="layer101" fill="#013846" stroke="none">
<path d="M1865 2456 l-160 -94 -3 -199 -2 -198 -168 -96 -167 -97 -3 -198 -3 -199 -169 -98 -170 -99 0 -193 0 -194 118 -69 c64 -38 142 -83 172 -100 l55 -30 167 97 167 96 3 200 3 199 115 66 c63 36 140 80 170 97 l56 32 169 -99 c152 -88 172 -98 190 -86 57 37 311 179 320 179 6 0 82 -41 170 -92 88 -51 162 -93 166 -94 4 -1 82 41 173 93 l166 95 -2 200 -3 200 -160 92 c-88 51 -165 93 -171 93 -7 0 -86 -43 -176 -95 l-164 -95 -172 98 -171 97 -3 200 -3 200 -160 92 c-88 51 -167 92 -175 92 -8 0 -87 -42 -175 -93z"/>
<path d="M6795 2228 c-87 -32 -145 -95 -164 -178 -14 -59 -14 -296 0 -357 14 -65 55 -121 114 -158 44 -27 56 -30 134 -30 102 0 148 20 205 87 52 60 58 96 54 297 -4 199 -13 230 -85 290 -65 54 -183 76 -258 49z m170 -112 c15 -10 36 -38 47 -63 18 -40 19 -62 16 -202 -3 -154 -4 -158 -30 -193 -63 -82 -197 -74 -245 15 -15 27 -18 58 -18 192 0 183 9 216 73 254 44 26 115 24 157 -3z"/>
<path d="M10990 2231 c-78 -25 -129 -70 -164 -141 -19 -41 -21 -62 -21 -220 0 -172 1 -176 28 -233 31 -62 81 -104 151 -127 52 -17 151 -8 202 18 52 26 108 88 125 138 19 53 19 332 0 395 -29 101 -119 170 -229 175 -37 2 -78 0 -92 -5z m159 -118 c52 -38 62 -77 62 -243 0 -167 -10 -205 -63 -243 -63 -46 -172 -26 -210 39 -39 67 -35 345 6 406 44 67 142 86 205 41z"/>
<path d="M3631 2178 c-8 -29 -49 -188 -92 -353 -44 -165 -79 -306 -79 -313 0 -9 15 -12 57 -10 l57 3 58 235 c31 129 57 244 58 254 1 43 18 -7 85 -242 l70 -247 45 0 45 0 72 255 c39 140 74 248 77 240 3 -8 32 -123 64 -255 l58 -240 57 -3 c31 -2 57 1 57 5 0 7 -38 154 -154 598 l-31 120 -50 3 -51 3 -15 -58 c-48 -174 -122 -419 -128 -426 -4 -4 -39 102 -77 235 l-69 243 -51 3 -50 3 -13 -53z"/>
<path d="M4492 1868 l3 -363 55 0 55 0 0 360 0 360 -58 3 -57 3 2 -363z"/>
<path d="M4826 2198 c2 -18 13 -154 24 -303 11 -148 23 -298 26 -333 l6 -63 54 3 55 3 91 205 c50 113 94 208 97 213 4 4 23 -30 41 -75 19 -46 60 -141 92 -213 l57 -130 56 -3 c47 -3 55 -1 55 15 0 10 5 68 10 128 19 219 40 501 40 543 l0 42 -53 0 -53 0 -17 -227 c-10 -126 -17 -237 -17 -247 0 -31 -14 -9 -50 74 -18 41 -49 112 -70 156 -21 45 -41 91 -45 103 -5 16 -14 21 -44 21 l-38 0 -78 -172 c-81 -180 -95 -206 -95 -172 0 40 -30 420 -35 442 -5 19 -12 22 -60 22 l-54 0 5 -32z"/>
<path d="M5950 1865 l0 -365 55 0 54 0 3 158 3 157 142 3 142 3 3 -158 3 -158 53 -3 52 -3 0 365 0 366 -55 0 -54 0 -3 -157 -3 -158 -142 -3 -143 -3 0 161 0 160 -55 0 -55 0 0 -365z"/>
<path d="M7310 1865 l0 -365 231 0 230 0 -7 23 c-3 12 -12 37 -20 55 l-13 32 -155 0 -156 0 0 110 0 110 115 0 c63 0 115 4 115 9 0 5 -7 25 -15 45 l-15 36 -100 0 -100 0 0 155 0 155 -55 0 -55 0 0 -365z"/>
<path d="M8132 1868 l3 -363 55 0 54 0 105 222 c58 122 108 220 111 217 3 -3 50 -103 105 -222 l101 -217 54 0 55 0 0 360 0 360 -57 3 -58 3 -1 -233 0 -233 -49 100 c-27 55 -63 130 -80 168 l-32 67 -42 0 -43 0 -81 -167 -81 -168 0 233 -1 232 -60 0 -60 0 2 -362z"/>
<path d="M9000 1865 l0 -365 220 0 c121 0 220 3 220 6 0 4 -8 28 -17 55 l-18 49 -147 0 -148 0 0 105 0 105 124 0 124 0 -17 45 -16 45 -107 0 -108 0 0 110 0 110 165 0 c91 0 165 1 165 3 0 2 -7 24 -16 50 l-16 47 -204 0 -204 0 0 -365z"/>
<path d="M9700 1920 l0 -310 -91 0 -90 0 3 -52 3 -53 243 -3 243 -2 -6 22 c-4 13 -12 38 -18 56 l-11 32 -83 0 -83 0 0 310 0 310 -55 0 -55 0 0 -310z"/>
<path d="M10130 1865 l0 -365 55 0 54 0 3 158 3 157 145 0 145 0 3 -158 3 -158 52 3 52 3 3 363 2 362 -55 0 -54 0 -3 -157 -3 -158 -147 -3 -148 -3 0 161 0 160 -55 0 -55 0 0 -365z"/>
<path d="M11480 1864 l0 -367 164 5 c154 4 167 6 221 32 104 51 135 130 135 340 0 156 -21 233 -77 288 -59 58 -101 68 -284 68 l-159 0 0 -366z m342 241 c53 -36 63 -75 63 -240 0 -221 -26 -255 -197 -255 l-98 0 0 260 0 260 98 0 c87 0 101 -3 134 -25z"/>
</g>
<g id="layer102" fill="#335f6b" stroke="none">
<path d="M1865 2455 l-160 -93 0 -198 0 -197 167 -96 168 -96 0 -196 0 -197 168 -97 c92 -54 172 -98 177 -98 6 0 82 42 170 93 88 52 164 93 170 93 6 0 82 -41 170 -92 88 -51 162 -93 166 -94 4 -1 82 41 173 93 l166 95 -2 200 -3 200 -160 92 c-88 51 -165 93 -171 93 -7 0 -86 -43 -176 -95 l-164 -95 -172 98 -171 97 -3 200 -3 200 -160 92 c-88 51 -167 92 -175 92 -8 0 -87 -42 -175 -94z"/>
<path d="M10990 2231 c-112 -36 -171 -112 -185 -237 l-7 -61 53 -30 54 -30 10 88 c12 98 30 133 86 162 42 22 110 18 148 -10 43 -32 61 -79 61 -160 0 -39 3 -74 8 -76 4 -3 31 9 60 25 l53 30 -6 47 c-16 122 -49 179 -131 227 -49 29 -154 42 -204 25z"/>
<path d="M10542 2155 l3 -76 53 -29 52 -30 0 105 0 105 -55 0 -56 0 3 -75z"/>
<path d="M11480 2125 l0 -105 53 29 c38 22 53 37 55 56 3 22 8 25 43 25 29 0 60 12 114 44 41 23 72 46 68 50 -3 3 -80 6 -170 6 l-163 0 0 -105z"/>
<path d="M7363 2037 l-53 -32 0 -252 0 -253 231 0 230 0 -7 23 c-3 12 -12 37 -20 55 l-13 32 -155 0 -156 0 0 110 0 110 115 0 c63 0 115 4 115 9 0 5 -7 25 -15 45 l-15 36 -100 0 -99 0 -3 74 -3 74 -52 -31z"/>
<path d="M7083 1875 c-53 -30 -53 -30 -53 -81 0 -79 -10 -113 -44 -149 -56 -59 -156 -59 -212 0 l-31 33 -42 -24 c-22 -14 -41 -29 -41 -33 0 -18 44 -63 88 -89 41 -24 57 -27 132 -27 101 0 147 20 204 87 47 54 57 96 54 216 l-3 98 -52 -31z"/>
<path d="M8135 1778 c-3 -8 -4 -72 -3 -144 l3 -129 52 -3 52 -3 41 80 c22 44 40 87 40 95 0 8 -24 27 -52 44 -29 16 -70 40 -90 52 -31 18 -39 19 -43 8z"/>
<path d="M1192 1279 l-172 -101 0 -193 0 -194 118 -69 c64 -38 142 -83 172 -100 l55 -30 167 97 168 96 0 200 0 200 -118 68 c-64 37 -140 81 -167 97 l-50 29 -173 -100z"/>
</g>
<g id="layer103" fill="#f7a520" stroke="none">
<path d="M1865 2455 l-160 -93 0 -197 0 -198 168 -95 167 -96 0 -197 0 -197 168 -97 c92 -54 172 -98 177 -98 6 0 82 42 170 93 88 52 164 93 170 93 6 0 82 -41 170 -92 88 -51 162 -93 166 -94 4 -1 82 41 173 93 l166 95 -2 200 -3 200 -160 92 c-88 51 -165 93 -171 93 -7 0 -86 -43 -176 -95 l-164 -95 -172 98 -171 97 -3 200 -3 200 -160 92 c-88 51 -167 92 -175 92 -8 0 -87 -42 -175 -94z"/>
</g>
<g id="layer104" fill="#9dc5c9" stroke="none">
<path d="M2205 1866 l-160 -93 -3 -195 -2 -195 167 -98 c93 -54 173 -98 178 -98 6 0 82 42 170 93 88 52 164 93 170 93 6 0 82 -41 170 -92 88 -51 162 -93 166 -94 4 -1 82 41 173 93 l166 95 -2 200 -3 200 -160 92 c-88 51 -165 93 -171 93 -7 0 -86 -43 -176 -95 l-165 -95 -164 95 c-90 52 -171 95 -179 95 -8 0 -87 -43 -175 -94z"/>
<path d="M1191 1278 l-171 -100 0 -193 0 -194 118 -69 c64 -38 142 -83 172 -100 l55 -30 167 97 168 96 -1 200 0 200 -168 96 -168 96 -172 -99z"/>
</g>
<g id="layer105" fill="#fff2dd" stroke="none">
<path d="M850 3051 l-165 -97 -3 -196 -2 -196 165 -96 c90 -53 170 -96 177 -96 7 0 85 42 173 93 l160 93 3 197 c2 195 2 196 -20 211 -29 19 -320 186 -322 185 0 0 -75 -44 -166 -98z"/>
<path d="M165 1866 l-160 -93 -3 -196 -2 -196 117 -69 c65 -38 143 -83 173 -100 l55 -30 165 97 165 97 3 196 2 196 -117 68 c-65 38 -138 81 -162 96 -25 15 -52 28 -60 28 -9 0 -88 -42 -176 -94z"/>
</g>
<g id="layer106" fill="#f6fafa" stroke="none">
<path d="M3578 3052 l-168 -96 0 -201 1 -200 167 -96 168 -95 172 99 172 99 0 186 c0 103 -4 192 -8 198 -4 6 -72 48 -152 94 -80 46 -154 89 -165 96 -18 11 -39 1 -187 -84z"/>
<path d="M2888 1867 l-158 -92 0 -200 0 -200 166 -95 c91 -52 167 -95 169 -95 2 0 79 43 170 95 l165 95 -2 200 -3 200 -160 92 c-88 51 -167 92 -175 92 -8 -1 -86 -42 -172 -92z"/>
<path d="M1183 1274 l-163 -96 0 -193 0 -194 118 -69 c64 -38 142 -83 172 -100 l55 -30 167 97 168 96 -3 198 -2 199 -160 94 c-88 52 -167 94 -175 93 -8 0 -88 -43 -177 -95z"/>
<path d="M4595 1277 l-160 -93 -3 -200 -2 -199 170 -97 169 -96 168 97 168 98 3 195 2 195 -168 97 c-93 53 -173 96 -178 96 -5 0 -81 -42 -169 -93z"/>
<path d="M2202 683 l-162 -95 2 -195 3 -195 169 -99 c150 -86 172 -96 191 -86 12 7 87 50 168 97 l147 84 0 197 0 197 -157 93 c-86 51 -166 94 -177 95 -12 1 -91 -39 -184 -93z"/>
</g>


</svg>