<svg version="1.1" id="Layer_1" xmlns="http://www.w3.org/2000/svg" xmlns:xlink="http://www.w3.org/1999/xlink" x="0px" y="0px"
	 width="100%" viewBox="0 0 1024 1024" enable-background="new 0 0 1024 1024" xml:space="preserve">
<path fill="#000000" opacity="1.000000" stroke="none" 
	d="
M765.273193,245.254639 
	C768.021851,240.864288 770.391357,236.645081 773.102173,232.657867 
	C777.652283,225.965179 784.008118,225.729675 789.167114,232.025360 
	C792.248840,235.786072 794.431458,240.130981 796.181946,244.645233 
	C808.992554,277.682068 813.398621,311.535706 805.322693,346.403687 
	C800.843140,365.744232 791.687561,382.696594 776.082642,395.254272 
	C754.379150,412.719666 729.988953,417.033569 703.245483,408.149933 
	C702.746582,408.778687 703.424377,409.486755 703.762634,410.168671 
	C707.876099,418.459961 707.094727,426.087891 701.306335,433.460175 
	C685.262329,453.894623 669.353394,474.435486 653.451721,494.981232 
	C633.268494,521.059082 613.439270,547.417358 592.904541,573.214600 
	C575.892944,594.585754 557.080444,614.444824 538.926147,634.846863 
	C507.484375,670.181641 475.992523,705.476746 444.105896,740.409058 
	C421.313263,765.378784 399.508118,791.268311 375.573334,815.176025 
	C363.862000,826.874146 349.356476,829.439697 333.983002,824.456543 
	C308.889740,816.322754 298.993073,788.530884 313.124603,766.015869 
	C325.613708,746.117554 339.947815,727.466003 353.574860,708.342224 
	C393.977478,651.642273 434.372101,594.935547 475.063995,538.443359 
	C491.400848,515.763062 506.509705,492.144501 525.798279,471.659698 
	C556.402893,439.157104 586.758545,406.420013 617.217468,373.780182 
	C619.262878,371.588318 621.282654,369.372528 623.328796,367.181427 
	C631.404236,358.534119 637.768677,357.562622 648.127441,363.403259 
	C649.132568,363.969940 650.092712,364.616333 651.706177,365.618591 
	C648.945618,353.201630 649.214111,341.183533 652.375000,329.437805 
	C661.206543,296.619873 683.293152,277.618927 715.712646,269.727661 
	C721.848206,268.234192 728.080322,267.130249 734.198853,265.574982 
	C746.720642,262.392029 757.021301,255.684753 765.273193,245.254639 
M567.890930,564.402100 
	C586.200073,543.391968 602.053345,520.492615 618.831970,498.303619 
	C620.877319,495.598755 619.680908,494.204956 617.720154,492.556122 
	C610.327271,486.339325 602.998169,480.046417 595.579956,473.860229 
	C588.715576,468.135925 581.767761,462.511719 574.687561,456.704773 
	C560.010620,472.072144 545.318909,486.874084 532.395630,503.200134 
	C507.675110,534.429626 485.130707,567.275269 461.995544,599.675232 
	C430.533447,643.736755 399.195374,687.887024 367.889252,732.059509 
	C357.100098,747.282837 346.533966,762.664856 335.939178,778.024841 
	C333.455994,781.624756 331.451447,785.411377 332.756042,790.138245 
	C335.831268,801.280701 348.970306,805.150452 357.852142,797.253174 
	C361.318024,794.171326 364.225281,790.457153 367.356262,787.003235 
	C391.079468,760.833252 414.701416,734.570862 438.533325,708.500366 
	C481.926849,661.030884 524.718994,613.023438 567.890930,564.402100 
M695.281982,306.767456 
	C675.140137,322.448425 670.913757,354.947083 679.720276,373.639008 
	C689.768005,362.299286 703.351501,359.616669 717.343750,357.898956 
	C707.339783,357.581116 697.892090,359.688202 689.022888,363.960388 
	C686.247986,360.690979 686.654968,357.004211 686.146362,353.659424 
	C684.408447,342.231812 689.327332,334.341217 700.537598,331.661407 
	C706.338074,330.274811 709.845276,327.587250 711.847656,321.939362 
	C713.662903,316.818939 717.498840,312.998596 722.178589,310.096924 
	C725.316284,308.151367 728.626770,306.669312 732.127197,305.517029 
	C738.605469,303.384460 745.209534,301.574066 751.332642,298.479004 
	C760.830688,293.678070 767.497803,286.366699 771.015381,276.015289 
	C757.090759,288.003845 739.829407,290.623505 722.910828,294.152924 
	C712.990173,296.222473 703.856934,300.025787 695.281982,306.767456 
M595.036194,441.455109 
	C609.343689,453.412140 623.702576,465.308685 637.914001,477.378815 
	C640.659241,479.710449 642.526672,479.399353 644.428894,476.706970 
	C648.305054,471.220734 650.964722,465.142975 653.155212,458.826721 
	C653.941711,456.558990 652.559631,455.455261 651.089539,454.273102 
	C637.861389,443.636169 624.642883,432.987122 611.421265,422.342010 
	C608.223755,419.767548 605.123291,416.115204 601.294678,421.609161 
	C601.000549,422.031219 600.081604,422.218964 599.469910,422.187592 
	C593.272400,421.869873 591.325867,426.344757 589.486877,430.951202 
	C587.406616,436.161987 591.268005,438.426758 595.036194,441.455109 
M676.362122,426.919830 
	C681.117554,420.270813 681.134277,420.250366 674.937988,415.175964 
	C665.926270,407.795990 656.954773,400.364532 647.841370,393.111816 
	C638.793518,385.911285 638.725830,385.996368 630.596985,394.162720 
	C624.461731,400.326263 624.372864,400.434174 630.859070,405.776001 
	C643.296448,416.018921 655.845581,426.126221 668.799011,436.656128 
	C671.288574,433.452362 673.608887,430.466370 676.362122,426.919830 
M741.133240,377.864288 
	C735.427551,379.707214 729.644409,380.893280 723.634033,381.580475 
	C716.550110,382.390381 709.052551,381.210083 701.839905,385.061707 
	C709.459473,388.182556 716.931946,388.036865 724.350830,388.043304 
	C749.823303,388.065338 766.580261,374.892059 776.692078,352.515015 
	C783.600464,337.227234 784.963501,320.909973 783.643677,304.178802 
	C781.180542,316.690552 778.850891,329.130585 774.224670,340.898804 
	C767.910461,356.960693 758.823303,370.801636 741.133240,377.864288 
z"/>
<path fill="#000000" opacity="1.000000" stroke="none" 
	d="
M556.130981,217.661407 
	C574.502991,220.575958 591.630798,225.882233 606.938538,235.864395 
	C626.020447,248.307724 639.594360,264.872406 642.577026,288.210480 
	C646.091919,315.713409 637.223816,338.624908 614.723328,355.156647 
	C603.994568,363.039429 593.468689,370.644257 587.572632,383.050995 
	C586.872375,384.524445 585.696838,385.811310 584.584229,387.042480 
	C580.482361,391.581329 574.710571,392.913116 569.684448,390.572327 
	C564.524170,388.169098 561.571350,382.448303 562.311157,376.516602 
	C562.734192,373.124664 564.008911,370.068695 565.812378,367.245544 
	C573.328674,355.479309 582.119446,344.971161 594.239380,337.540741 
	C604.179749,331.446564 611.797119,323.199219 615.424011,311.872314 
	C621.285217,293.567200 613.997620,274.014252 596.652466,261.046997 
	C581.366516,249.619247 563.683594,244.495407 545.125427,242.379395 
	C480.510620,235.012009 422.186829,253.052704 368.281677,287.509521 
	C319.403137,318.753265 283.036194,361.109558 259.219788,413.985046 
	C247.998978,438.896729 242.248291,465.340851 239.197876,492.466522 
	C233.661728,541.696716 243.215134,588.218079 264.212006,632.587097 
	C276.889557,659.376282 294.524902,682.701965 316.425171,702.739502 
	C319.379150,705.442139 322.349609,708.108154 324.186371,711.784973 
	C327.161255,717.740234 326.264740,723.784485 321.747864,727.693359 
	C316.450134,732.277954 310.486786,732.727905 304.961487,728.040100 
	C294.145142,718.863220 284.351990,708.621582 275.298523,697.691589 
	C241.922211,657.397400 222.917084,610.844910 214.510101,559.500610 
	C209.473160,528.738464 210.572250,498.259857 216.040634,467.696960 
	C230.019516,389.568420 271.050354,328.207397 332.751038,279.944611 
	C371.982666,249.257278 416.587860,229.702316 465.398285,220.008347 
	C495.305176,214.068665 525.437988,212.376450 556.130981,217.661407 
z"/>
<path fill="#000000" opacity="1.000000" stroke="none" 
	d="
M744.186890,639.249268 
	C753.959900,620.654602 761.448242,601.573120 763.349304,580.919373 
	C765.021362,562.752991 762.947449,544.975647 753.059082,528.908386 
	C739.462585,506.815826 714.470520,498.145203 690.201416,507.169708 
	C687.549133,508.156006 684.945496,509.272705 682.298279,510.273499 
	C676.175903,512.588074 671.636902,511.851654 668.576355,508.092194 
	C665.200317,503.945190 665.104614,497.038849 668.518250,492.227173 
	C671.393921,488.173645 675.367004,485.505493 679.938782,483.627258 
	C716.580322,468.573273 757.466675,482.726410 776.817322,517.351074 
	C789.323975,539.729553 792.417969,563.831482 788.662781,588.872681 
	C781.736511,635.060181 759.445923,673.378845 727.378967,706.482849 
	C681.561584,753.782043 625.521057,781.540588 561.120483,793.499695 
	C537.892090,797.813110 514.540405,799.218933 491.038330,798.154541 
	C474.587555,797.409607 458.207428,795.502686 442.040680,792.241760 
	C434.319366,790.684326 430.589874,786.129517 430.674164,779.276733 
	C430.772736,771.264099 437.045929,765.711670 445.382904,766.862244 
	C456.747406,768.430603 468.103699,769.934509 479.532410,771.027466 
	C498.153015,772.808228 516.679077,772.889221 535.319824,770.948303 
	C558.623535,768.521851 581.242493,763.389282 603.259705,755.566956 
	C658.568542,735.916687 702.764709,701.723633 736.039062,653.423218 
	C739.050659,649.051575 741.370667,644.203491 744.186890,639.249268 
z"/>
<path fill="#000000" opacity="1.000000" stroke="none" 
	d="
M263.877930,525.278015 
	C270.779633,505.081787 284.862457,494.072906 305.508850,493.119690 
	C331.303741,491.928741 352.139221,509.520325 353.557526,536.398315 
	C354.869843,561.268433 334.198761,585.630920 305.093811,584.309875 
	C283.929932,583.349365 265.435883,566.382812 262.562744,545.405273 
	C261.634674,538.629150 262.411255,532.189880 263.877930,525.278015 
M319.285522,522.129883 
	C308.153839,515.346313 295.365509,518.406311 289.686676,529.212402 
	C284.141144,539.764832 288.717224,552.478271 299.752075,557.176453 
	C308.661926,560.969971 319.983734,557.591980 324.927216,549.665222 
	C330.746826,540.333618 328.934998,530.604309 319.285522,522.129883 
z"/>
<path fill="#000000" opacity="1.000000" stroke="none" 
	d="
M511.222595,407.020264 
	C500.953674,424.849701 484.489258,432.470062 463.735107,429.268463 
	C447.716492,426.797333 433.728058,412.542450 430.116791,395.009735 
	C425.373566,371.981384 440.696167,348.241333 463.144012,343.839020 
	C488.291321,338.907379 510.814301,353.796265 515.419495,378.097717 
	C517.332336,388.191895 515.695801,397.572357 511.222595,407.020264 
M482.755157,401.376251 
	C492.223480,394.090607 493.629639,383.525269 486.277863,374.907471 
	C480.066437,367.626343 470.470337,366.369904 462.537872,371.799103 
	C455.190430,376.827911 452.751801,386.770569 456.909271,394.747925 
	C461.782135,404.097870 471.641815,406.840027 482.755157,401.376251 
z"/>
<path fill="#000000" opacity="1.000000" stroke="none" 
	d="
M706.675476,607.462036 
	C716.429199,622.113831 716.418518,644.984314 703.893982,658.410950 
	C692.429138,670.701599 678.338562,675.247986 662.210083,670.918945 
	C646.725098,666.762695 637.218140,655.892883 633.833618,640.362915 
	C630.422852,624.712769 634.424133,610.692871 646.768799,600.203613 
	C659.403809,589.467529 674.050293,588.064758 689.454041,593.725952 
	C696.572327,596.342163 701.912415,601.268188 706.675476,607.462036 
M667.287292,644.421204 
	C675.306641,647.467163 683.388672,644.456665 686.556458,637.243530 
	C689.610474,630.289429 686.601440,622.248413 679.606934,618.672424 
	C673.013611,615.301575 664.985352,617.775330 661.057861,624.388062 
	C656.896912,631.393799 659.090149,639.142212 667.287292,644.421204 
z"/>
<path fill="#000000" opacity="1.000000" stroke="none" 
	d="
M598.780029,725.758179 
	C588.414734,735.667114 575.870117,737.961365 563.552673,732.420471 
	C552.703674,727.540222 546.408875,716.986145 546.689514,704.147217 
	C546.952332,692.123657 554.689209,681.198181 566.036072,676.827332 
	C577.687073,672.339417 593.696655,676.758423 600.856628,686.438599 
	C609.866272,698.619568 609.198486,712.837891 598.780029,725.758179 
M576.573120,701.238037 
	C573.771240,701.531250 572.336365,703.109070 572.783325,705.879395 
	C573.056763,707.574524 574.264099,708.964966 576.100830,709.108521 
	C578.346130,709.283997 579.976868,708.007812 580.480347,705.887878 
	C581.072327,703.394836 579.887817,701.760864 576.573120,701.238037 
z"/>
<path fill="#000000" opacity="1.000000" stroke="none" 
	d="
M500.970276,279.912964 
	C508.924011,274.198151 516.917603,274.410431 522.530273,280.231720 
	C528.320496,286.237152 528.947571,295.354553 524.007263,301.706207 
	C519.293579,307.766479 509.909119,309.511780 503.234711,305.569550 
	C494.248383,300.261749 493.132324,289.124939 500.970276,279.912964 
z"/>
<path fill="#000000" opacity="1.000000" stroke="none" 
	d="
M409.537048,322.491211 
	C417.707489,333.553558 413.173645,347.556213 401.199432,349.324249 
	C393.634399,350.441254 386.865417,346.814362 384.122711,340.174316 
	C381.139679,332.952423 383.248932,324.841919 389.243988,320.481873 
	C395.389740,316.012238 402.887024,316.663940 409.537048,322.491211 
z"/>
<path fill="#000000" opacity="1.000000" stroke="none" 
	d="
M317.828308,645.465820 
	C317.828857,642.728027 317.573486,640.348694 318.026276,638.112732 
	C319.513367,630.769287 326.208099,625.511719 333.377991,625.769775 
	C340.927277,626.041504 347.205597,632.034241 348.268524,639.983093 
	C349.256317,647.369751 344.616089,654.798035 337.563538,657.119995 
	C328.286743,660.174255 321.631958,656.374268 317.828308,645.465820 
z"/>
<path fill="#000000" opacity="1.000000" stroke="none" 
	d="
M322.566101,446.751709 
	C315.986298,450.673187 309.672119,451.340485 303.665375,446.622162 
	C298.473663,442.544067 296.694336,436.986542 298.172546,430.593079 
	C299.692474,424.019531 305.066742,419.380402 311.421509,418.754425 
	C317.979553,418.108398 324.402740,421.880676 327.140289,427.985809 
	C329.999390,434.362030 328.434387,441.167755 322.566101,446.751709 
z"/>
<path fill="#000000" opacity="1.000000" stroke="none" 
	d="
M637.493530,455.187134 
	C639.834534,456.826233 641.858093,458.254211 643.877136,459.688629 
	C646.956055,461.875977 647.199829,464.718445 644.883484,467.333801 
	C642.656860,469.847778 639.602722,471.116302 636.621460,468.405640 
	C634.559387,466.530792 632.844238,464.252167 631.106873,462.049164 
	C629.564209,460.092957 628.916687,457.802216 630.590210,455.671753 
	C632.423462,453.338074 634.778076,453.316132 637.493530,455.187134 
z"/>
</svg>